<svg id="cover"
  xmlns="http://www.w3.org/2000/svg" xmlns:xlink="http://www.w3.org/1999/xlink" version="1.1" x="0px" y="0px" viewBox="0 0 100 125" enable-background="new 0 0 100 100" xml:space="preserve"><path d="M92.982,9.029c-18.509,1.416-39.244,12.25-41.107,25.067v47.905c0,1.037-0.839,1.875-1.875,1.875  c-1.036,0-1.875-0.838-1.875-1.875V34.096C46.261,21.279,25.526,10.445,7.018,9.029C5.929,8.954,5,9.8,5,10.899v57.25  c0,0.99,0.77,1.809,1.758,1.871c17.144,1.075,34.673,9.534,41.679,20.114c0.742,1.12,2.385,1.122,3.127,0  c7.006-10.58,24.534-19.039,41.679-20.114C94.23,69.958,95,69.14,95,68.149v-57.25C95,9.645,93.902,8.966,92.982,9.029z"/><text x="0" y="115" fill="#000000" font-size="5px" font-weight="bold" font-family="'Helvetica Neue', Helvetica, Arial-Unicode, Arial, Sans-serif">Created by Jake Dunham</text><text x="0" y="120" fill="#000000" font-size="5px" font-weight="bold" font-family="'Helvetica Neue', Helvetica, Arial-Unicode, Arial, Sans-serif">from the Noun Project</text></svg>
