<svg id="first-lotus"
  xmlns="http://www.w3.org/2000/svg" xmlns:xlink="http://www.w3.org/1999/xlink" xml:space="preserve" version="1.1" style="shape-rendering:geometricPrecision;text-rendering:geometricPrecision;image-rendering:optimizeQuality;" viewBox="0 0 797 596.25" x="0px" y="0px" fill-rule="evenodd" clip-rule="evenodd"><defs><style type="text/css">

    .fil0 {fill:black}

  </style></defs>
  <g>
<!--

  <path class="fil0" d="M0 368c0,0 20,14 23,15 29,16 63,27 95,36 25,6 56,14 82,19 10,2 -137,-30 -177,-58 -6,-4 124,-1 151,2 6,1 7,0 12,3 11,6 67,18 69,20 5,3 74,44 70,46 -1,1 -27,2 -53,-5 -8,-2 -42,2 -90,-4 -81,-9 -189,-35 -182,-74z"/> -->


  <!-- <path class="fil0" d="M398 310c11,0 2,8 2,8 -1,0 0,-3 -1,-5 -2,-2 -1,5 -2,5 0,0 -10,-8 1,-8z"/> -->

  <path class="fil0" d="M402 456c18,-90 20,-76 24,-110 2,-13 -19,-106 -27,-116 -5,10 -30,102 -29,115 2,25 12,47 25,111 5,25 1,31 7,0z"/>
  <!-- <path class="fil0" d="M796 368c0,0 -20,14 -22,15 -29,16 -63,27 -95,36 -25,6 -56,14 -82,19 -10,2 137,-30 177,-58 6,-4 -125,-1 -152,2 -6,1 -6,0 -11,3 -11,6 -67,18 -69,20 -18,12 -38,22 -57,35 -1,0 -15,10 -14,11 2,1 28,2 54,-5 8,-2 42,2 89,-4 82,-9 189,-35 182,-74z"/> -->
  <path class="fil0"
    d="M398 456c7,-2 13,0 19,1 4,1 40,-28 48,-32 16,-6 57,-26 73,-22 1,0 -56,33 -69,46 -1,0 -2,4 -3,5 -15,11 -29,23 -52,23 -3,0 -13,-4 -16,-6 -2,2 -13,6 -15,6 -24,0 -38,-12 -53,-23 -1,-1 -2,-5 -3,-5 -12,-13 -70,-46 -68,-46 14,-4 58,16 72,22 8,4 45,33 49,32 6,-1 11,-3 18,-1z"/>
</g>


  <text x="0" y="492" fill="#000000" font-size="5px" font-weight="bold" font-family="'Helvetica Neue', Helvetica, Arial-Unicode, Arial, Sans-serif">Created by Estu Suhartono</text><text x="0" y="497" fill="#000000" font-size="5px" font-weight="bold" font-family="'Helvetica Neue', Helvetica, Arial-Unicode, Arial, Sans-serif">from the Noun Project</text></svg>
