<svg id="no-fill"
  xmlns="http://www.w3.org/2000/svg" xmlns:xlink="http://www.w3.org/1999/xlink" version="1.1" x="0px" y="0px" viewBox="0 0 1000 1250" style="enable-background:new 0 0 1000 1000;" xml:space="preserve"><g>

<path d="M747.5,353.4c-2.6,17.2-10.4,59-30.7,105.6c-29.1,10.4-55.8,23.4-79.5,38.9c-6.2,4.1-12.5,8.5-18.7,13.1   c-1.5,1.1-3,2.3-4.1,3.1c-1.5,1.2-2.9,2.3-4.3,3.4c-22.1,17.6-43,38.6-62.2,62.2c-1.6,2-3.1,3.9-4.6,5.8c-1.7,2.1-3.3,4.3-5,6.4   c-2.8,3.7-5.5,7.3-8.1,11c-4.6,6.5-8.8,12.7-12.5,18.5c2.6-10.4,5.9-22.2,10.2-34.9c10.8-32.3,24.9-62,41.8-88.4   c0.8-1.3,1.8-2.8,2.9-4.4c0.8-1.3,1.7-2.6,2.8-4.2c3.8-5.6,7.8-11.1,12-16.4c16.3-20.9,35.8-40.6,58-58.5c0.9-0.7,1.7-1.4,2.7-2.1   c0.9-0.7,1.8-1.4,2.7-2.1C691.7,378.5,731.2,360.2,747.5,353.4 M753.5,345.7c0,0-51.3,18.3-105.7,60.8c-0.9,0.7-1.8,1.4-2.7,2.1   c-0.9,0.7-1.8,1.4-2.7,2.1c-20.2,16.3-40.6,36-58.8,59.3c-4.3,5.5-8.3,11-12.2,16.6c-1,1.4-1.9,2.8-2.8,4.2c-1,1.5-1.9,3-2.9,4.5   c-39.3,61.3-54,125.8-58.9,154.5c5.6-10.3,14.8-26,27.7-44.1c2.5-3.5,5.1-7.1,8-10.8c1.6-2.1,3.2-4.2,4.9-6.4   c1.5-1.9,3-3.8,4.6-5.7c15.9-19.6,36.4-41.4,61.4-61.4c1.4-1.1,2.8-2.2,4.2-3.3c1.3-1,2.7-2.1,4-3.1c5.9-4.5,12.1-8.8,18.4-13   c26.8-17.5,54.8-30.1,80.4-39.1C748.3,399.9,753.5,345.7,753.5,345.7 L753.5,345.7z"
  transform="rotate(350 400,100)"
  />

  <path d="
    M367,290.7
    c14.8,13.2,52.7,49.6,83.3,102.2
    c0.6,1.1,1.2,2.2,1.8,3.3

    c10.3,18.5,18.8,37.4,25.3,56.3

    c5.7,16.5,10.1,34,13.3,51.9

    c0.4,2.5,0.9,5,1.2,7.5
    c0.4,2.7,0.8,5.4,1.2,8.4

    c4.9,36.5,4.2,69.7,1.9,95

    c-1.7-7.1-3.7-14.3-5.8-21.5

    c-7.4-25.1-16.9-49.4-28.3-72

    c-1.3-2.5-2.6-5.1-3.9-7.5
    c-1.2-2.3-2.4-4.6-3.6-6.7

    c-9.4-17.1-20-33.2-31.3-47.7

    c-17.4-22.3-38.4-43.3-62.5-62.6
    C357.7,349.8,363.8,307.7,367,290.7

    M363.8,281.3
    c0,0-12.7,53-6.9,121.7
    c21.3,16.8,43.7,37.8,63.4,63.1
    c12,15.4,22.2,31.3,30.8,47

    c1.2,2.2,2.4,4.4,3.6,6.6
    c1.3,2.5,2.6,5,3.8,7.4

    c13.2,26.4,22.1,51.4,27.9,71.2
    c2.9,9.8,5.2,18.9,7.1,27
    c1.3,5.4,2.3,10.4,3.1,14.9
    c0.6,3.1,1.1,5.9,1.5,8.5

    c0,0.1,0,0.3,0.1,0.4
    c0-0.1,0-0.1,0-0.2

    c0.1-0.8,0.3-1.6,0.4-2.4v0
    c0.1-0.6,0.2-1.1,0.3-1.7

    c0.3-2.2,0.7-4.6,1-7.1
    c3.4-25.7,6.5-67.6,0.1-114.8

    c-0.4-2.8-0.8-5.6-1.2-8.5
    c-0.4-2.5-0.8-5-1.3-7.6

    c-3.1-17.2-7.4-34.9-13.5-52.7
    c-7.1-20.6-15.9-39.7-25.6-57.1

    c-0.6-1.1-1.2-2.2-1.9-3.3
    c-0.6-1.1-1.3-2.2-1.9-3.3

    C414.9,322.2,363.8,281.3,363.8,281.3
    L363.8,281.3z"/>

  <path d="
    M367,290.7
    c14.8,13.2,52.7,49.6,83.3,102.2
    c0.6,1.1,1.2,2.2,1.8,3.3

    c10.3,18.5,18.8,37.4,25.3,56.3

    c5.7,16.5,10.1,34,13.3,51.9

    c0.4,2.5,0.9,5,1.2,7.5
    c0.4,2.7,0.8,5.4,1.2,8.4

    c4.9,36.5,4.2,69.7,1.9,95

    c-1.7-7.1-3.7-14.3-5.8-21.5

    c-7.4-25.1-16.9-49.4-28.3-72

    c-1.3-2.5-2.6-5.1-3.9-7.5
    c-1.2-2.3-2.4-4.6-3.6-6.7

    c-9.4-17.1-20-33.2-31.3-47.7

    c-17.4-22.3-38.4-43.3-62.5-62.6
    C357.7,349.8,363.8,307.7,367,290.7

    M363.8,281.3
    c0,0-12.7,53-6.9,121.7
    c21.3,16.8,43.7,37.8,63.4,63.1
    c12,15.4,22.2,31.3,30.8,47

    c1.2,2.2,2.4,4.4,3.6,6.6
    c1.3,2.5,2.6,5,3.8,7.4

    c13.2,26.4,22.1,51.4,27.9,71.2
    c2.9,9.8,5.2,18.9,7.1,27
    c1.3,5.4,2.3,10.4,3.1,14.9
    c0.6,3.1,1.1,5.9,1.5,8.5

    c0,0.1,0,0.3,0.1,0.4
    c0-0.1,0-0.1,0-0.2

    c0.1-0.8,0.3-1.6,0.4-2.4v0
    c0.1-0.6,0.2-1.1,0.3-1.7

    c0.3-2.2,0.7-4.6,1-7.1
    c3.4-25.7,6.5-67.6,0.1-114.8

    c-0.4-2.8-0.8-5.6-1.2-8.5
    c-0.4-2.5-0.8-5-1.3-7.6

    c-3.1-17.2-7.4-34.9-13.5-52.7
    c-7.1-20.6-15.9-39.7-25.6-57.1

    c-0.6-1.1-1.2-2.2-1.9-3.3
    c-0.6-1.1-1.3-2.2-1.9-3.3

    C414.9,322.2,363.8,281.3,363.8,281.3
    L363.8,281.3z"
    transform="translate(6,0) scale(-1,1)"/>



  <path d="M252.5,352.6c16.2,6.8,55.7,25,96.6,57c0.9,0.7,1.8,1.4,2.7,2.1c0.9,0.7,1.7,1.4,2.6,2.1   c22.2,17.9,41.7,37.6,58,58.5c13.8,17.7,26.2,37.5,36.9,58.8c1.6,3.2,3,6.1,4.3,8.9c1.7,3.6,3.4,7.2,5.1,11.1   c9.6,22,17.4,45.3,23.4,69.3c0,0,0,0.1,0,0.1c-3.7-5.7-7.8-11.9-12.5-18.4c-16.2-22.8-43.2-56.1-79.8-85.3c-1.3-1-2.7-2.1-4.2-3.3   c-1.2-1-2.6-2-4.1-3.1c-6.1-4.6-12.4-9-18.7-13.1c-23.7-15.4-50.4-28.5-79.5-38.9C263,411.6,255.1,369.8,252.5,352.6 M246.5,344.8   c0,0,5.2,54.3,33.1,117.4c25.6,9,53.6,21.6,80.4,39.1c6.4,4.2,12.5,8.5,18.4,12.9c1.4,1,2.7,2,4,3.1c1.4,1.1,2.8,2.2,4.2,3.3   c35.4,28.3,61.9,60.4,78.9,84.4c12.9,18.1,22.1,33.8,27.7,44.1c-0.4-2.2-0.8-4.6-1.3-7.2c-0.6-3.1-1.3-6.5-2.1-10.1   c-0.8-3.9-1.8-8.1-2.9-12.6c-4.9-19.6-12.3-44-23.6-70c-1.6-3.7-3.3-7.5-5.1-11.3c-1.4-3-2.9-6-4.4-9c-10-19.9-22.3-40.2-37.4-59.6   c-18.2-23.3-38.6-43-58.8-59.3c-0.9-0.7-1.8-1.4-2.7-2.1c-0.9-0.7-1.8-1.4-2.7-2.1C297.8,363.2,246.5,344.8,246.5,344.8   L246.5,344.8z"/>

  <path d="M747.5,353.4c-2.6,17.2-10.4,59-30.7,105.6c-29.1,10.4-55.8,23.4-79.5,38.9c-6.2,4.1-12.5,8.5-18.7,13.1   c-1.5,1.1-3,2.3-4.1,3.1c-1.5,1.2-2.9,2.3-4.3,3.4c-22.1,17.6-43,38.6-62.2,62.2c-1.6,2-3.1,3.9-4.6,5.8c-1.7,2.1-3.3,4.3-5,6.4   c-2.8,3.7-5.5,7.3-8.1,11c-4.6,6.5-8.8,12.7-12.5,18.5c2.6-10.4,5.9-22.2,10.2-34.9c10.8-32.3,24.9-62,41.8-88.4   c0.8-1.3,1.8-2.8,2.9-4.4c0.8-1.3,1.7-2.6,2.8-4.2c3.8-5.6,7.8-11.1,12-16.4c16.3-20.9,35.8-40.6,58-58.5c0.9-0.7,1.7-1.4,2.7-2.1   c0.9-0.7,1.8-1.4,2.7-2.1C691.7,378.5,731.2,360.2,747.5,353.4 M753.5,345.7c0,0-51.3,18.3-105.7,60.8c-0.9,0.7-1.8,1.4-2.7,2.1   c-0.9,0.7-1.8,1.4-2.7,2.1c-20.2,16.3-40.6,36-58.8,59.3c-4.3,5.5-8.3,11-12.2,16.6c-1,1.4-1.9,2.8-2.8,4.2c-1,1.5-1.9,3-2.9,4.5   c-39.3,61.3-54,125.8-58.9,154.5c5.6-10.3,14.8-26,27.7-44.1c2.5-3.5,5.1-7.1,8-10.8c1.6-2.1,3.2-4.2,4.9-6.4   c1.5-1.9,3-3.8,4.6-5.7c15.9-19.6,36.4-41.4,61.4-61.4c1.4-1.1,2.8-2.2,4.2-3.3c1.3-1,2.7-2.1,4-3.1c5.9-4.5,12.1-8.8,18.4-13   c26.8-17.5,54.8-30.1,80.4-39.1C748.3,399.9,753.5,345.7,753.5,345.7L753.5,345.7z"/>

  <path d="M835.6,449.2c-8,15.4-29,52.4-63.3,89.8c-30.7,0.3-60.3,4-87.8,11c-7.3,1.8-14.6,4-22,6.3   c-1.4,0.5-2.9,1-4.4,1.5l-0.5,0.2c-1.6,0.5-3.2,1.1-5.1,1.8c-30.9,11-61.5,26.6-91,46.3c-2.1,1.4-4.2,2.8-6,4.1h0l-0.9,0.7   c-0.1,0.1-0.2,0.1-0.3,0.2l-2.2,1.5v0c-1,0.7-1.9,1.4-2.9,2.1l-1.3,0.9l-2,1.5c-4.9,3.6-9.7,7.3-14.4,11c2.4-3.7,5-7.7,7.8-11.7   c2-3,4.1-5.9,6.2-8.7c1.8-2.4,3.6-4.9,5.4-7.2c18.5-24.4,39-46.2,60.8-64.6c1.7-1.5,3.2-2.7,4.5-3.7l0.2-0.2l0,0   c1.2-1,2.5-2.1,4.1-3.3c8.1-6.5,16.5-12.5,25-18c22.1-14.4,47-26.7,73.8-36.5l1-0.4c0.7-0.3,1.5-0.5,2.2-0.8l0.8-0.3   c0.8-0.3,1.6-0.6,2.4-0.8C774.7,454.8,818,450.4,835.6,449.2 M843.8,443.8c0,0-54.5,0.7-119.7,23.1c-1.1,0.4-2.2,0.8-3.3,1.1   c-1.1,0.4-2.2,0.8-3.2,1.2c-24.4,8.9-50.1,20.9-74.9,37c-8.9,5.8-17.3,11.9-25.3,18.3c-1.5,1.2-3,2.4-4.4,3.6l0,0   c-1.6,1.3-3.1,2.5-4.6,3.8c-25.2,21.3-45.6,44.5-61.5,65.4c-1.9,2.5-3.7,4.9-5.4,7.3c-2.2,3-4.3,5.9-6.2,8.8   c-10.6,15.4-18.5,28.7-23.5,38c2.9-2.7,6.3-5.7,10.3-9.1c1.5-1.3,3.1-2.6,4.8-4c1.5-1.2,3-2.5,4.6-3.8c5.2-4.2,11.1-8.7,17.5-13.4   c1.1-0.8,2.2-1.6,3.3-2.4c1.6-1.1,3.3-2.3,4.9-3.5c0,0,0,0,0,0c2.3-1.6,4.7-3.2,7.2-4.9c23.1-15.4,53.9-32.9,89.9-45.8   c1.7-0.6,3.3-1.2,5-1.8h0c1.6-0.6,3.2-1.1,4.8-1.6c7-2.3,14.3-4.4,21.6-6.3c27.8-7,57.7-10.7,88.8-10.9   C821.3,493.4,843.8,443.8,843.8,443.8L843.8,443.8z"/>

  <path id="bottomright" d="M777.1,554c51.6,0,93.8,9.8,110.7,14.4c-12.6,12-44.5,40.1-89.1,64.4c-29.3-9.7-58.4-15.8-86.6-18.1   c-7.5-0.6-15.2-1-22.8-1.1c-1.5,0-3.1-0.1-5.2-0.1c-0.4,0-0.7,0-1.1,0c-1.4,0-2.9,0-4.3,0c-32.6,0.4-66.7,5.2-101.1,14.3   c-2.6,0.7-5.2,1.4-7.8,2.1h0l-0.7,0.2c-3.2,0.9-6.4,1.8-9.8,2.9c-2.1,0.6-4,1.3-5.6,1.8c-3.9,1.3-7.8,2.6-11.6,3.9   c1.1-0.8,2.1-1.7,3.2-2.5c3.2-2.4,6.5-4.9,9.9-7.5c29.8-21.7,60.9-38.9,92.7-51.3c1.9-0.7,3.8-1.4,5.5-2.1c1.7-0.6,3.5-1.3,5.2-1.9   c9.7-3.4,19.6-6.4,29.5-8.9c25.6-6.5,53.1-10,81.7-10.5c1.1,0,2.2,0,3.3,0l0.1,0c1.1,0,2.2,0,3.3,0H777.1 M777.1,549h-0.5   c-1.1,0-2.3,0-3.4,0c-1.1,0-2.3,0-3.4,0.1c-26,0.5-54.2,3.4-82.8,10.7c-10.3,2.6-20.3,5.7-29.9,9.1c-1.8,0.6-3.5,1.3-5.3,1.9   c-1.9,0.7-3.7,1.4-5.6,2.1c-37.9,14.8-69.9,34.5-93.8,51.9c-3.5,2.6-6.9,5.1-10.1,7.5c-5.6,4.3-10.6,8.4-15.1,12.2   c-0.4,0.4-0.9,0.9-1.3,1.3c0.1-0.1,0.1-0.2,0.2-0.3c-1.8,1.5-3.5,3-5.1,4.4c-1.8,1.6-3.6,3.2-5.1,4.6c0.6-0.3,1.3-0.5,1.9-0.8   c0.5-0.2,1-0.4,1.5-0.6c1.2-0.5,2.4-1,3.7-1.5c0.4-0.2,0.8-0.3,1.2-0.5c1.9-0.8,3.9-1.6,6-2.4c7.2-2.8,15.6-5.8,25-8.9   c1.8-0.6,3.7-1.2,5.6-1.8c3.1-0.9,6.3-1.9,9.7-2.9h0c2.7-0.8,5.5-1.5,8.4-2.3c27.2-7.2,62-13.7,99.9-14.1c1.4,0,2.8,0,4.2,0h0   c0.3,0,0.7,0,1,0h0c1.7,0,3.4,0,5.1,0c7.6,0.1,15.1,0.5,22.5,1.1c31.9,2.7,61.7,9.9,87.5,18.6c60.7-32.7,98.2-72.3,98.2-72.3   S845.8,549,777.1,549L777.1,549z"/>


  <path d="M164.4,448.4c17.6,1.2,60.8,5.6,109.7,22.4v0l3.4,1.2c1,0.4,2.1,0.7,3.2,1.1c26.8,9.8,51.7,22,73.9,36.5   c8.4,5.5,16.8,11.6,25,18c1.3,1,2.7,2.2,4.3,3.5c1.5,1.2,2.9,2.4,4.5,3.8c36.6,31,63.1,65.7,80.2,92.3c-4.4-3.5-9.3-7.2-14.5-11   c-1.1-0.8-2.2-1.6-3.3-2.4c-1.5-1.1-3.1-2.2-5-3.5c-2.3-1.6-4.7-3.3-7.3-5c-29.5-19.7-60-35.2-90.9-46.3c-1.9-0.7-3.5-1.3-5.1-1.8   c-1.4-0.5-2.9-1-4.9-1.6c-7.3-2.4-14.7-4.5-22-6.3c-27.6-7-57.1-10.7-87.8-11C193.4,500.8,172.4,463.8,164.4,448.4 M156.1,443   c0,0,22.6,49.6,69.4,100.2c31.1,0.2,61,3.8,88.8,10.9c7.4,1.9,14.6,4,21.6,6.3c1.6,0.5,3.2,1.1,4.8,1.6c1.7,0.6,3.4,1.2,5,1.8   c35.9,12.9,66.7,30.3,89.8,45.7c2.5,1.7,4.9,3.3,7.2,4.9c1.7,1.2,3.4,2.3,5,3.5c1.1,0.8,2.2,1.6,3.3,2.4   c16.5,12,29.1,22.9,37.2,30.3c-13.2-24.2-45-75.7-96.7-119.5c-1.5-1.3-3-2.6-4.6-3.8c-1.5-1.2-2.9-2.4-4.4-3.5   c-8-6.4-16.5-12.5-25.3-18.3c-24.8-16.1-50.5-28.1-74.9-37c-1.1-0.4-2.2-0.8-3.2-1.1v0h0c-1.1-0.4-2.2-0.8-3.3-1.1   C210.6,443.7,156.1,443,156.1,443L156.1,443z"/>

  <path d="M223.4,553.2c1.1,0,2.2,0,3.4,0c1.1,0,2.2,0,3.4,0c28.6,0.5,56.1,4,81.7,10.5c9.7,2.5,19.6,5.5,29.5,8.9   c1.9,0.7,3.6,1.3,5.2,1.9c1.7,0.6,3.6,1.3,5.5,2.1c31.7,12.4,62.9,29.6,92.7,51.3c3.4,2.5,6.8,5,10,7.5c1.1,0.8,2.1,1.7,3.2,2.5   c-3.8-1.4-7.7-2.7-11.6-3.9c-1.8-0.6-3.7-1.2-5.7-1.8c-3.3-1-6.6-2-9.8-2.9l-0.4-0.1c-2.6-0.7-5.3-1.5-8.1-2.2   c-34.4-9.1-68.4-13.9-101.1-14.3c-1.4,0-2.8,0-4.3,0c-0.4,0-0.8,0-1.1,0c-2.1,0-3.7,0-5.1,0.1c-7.6,0.1-15.3,0.5-22.8,1.1   c-28.1,2.4-57.3,8.5-86.6,18.1c-44.6-24.3-76.5-52.5-89.1-64.4c16.9-4.6,59.1-14.4,110.7-14.4H223.4 M223.4,548.2h-0.5   c-68.8,0-120.3,17-120.3,17s37.4,39.6,98.2,72.3c25.8-8.7,55.5-15.9,87.5-18.6c7.4-0.6,14.9-1,22.5-1.1c1.7,0,3.4-0.1,5.1-0.1h0   c0.4,0,0.7,0,1.1,0c1.4,0,2.8,0,4.2,0c37.9,0.4,72.7,6.9,99.9,14.1c2.9,0.8,5.7,1.5,8.4,2.3h0c3.4,0.9,6.6,1.9,9.6,2.9   c1.9,0.6,3.8,1.2,5.6,1.8c9.5,3.1,17.9,6.1,25,8.9c2.1,0.8,4.1,1.6,6,2.4c2.3,0.9,4.5,1.8,6.4,2.7c0.7,0.3,1.3,0.6,1.9,0.8   c-3.2-2.9-6.9-6.2-11.4-10c-4.4-3.7-9.5-7.8-15.1-12.2c-3.2-2.5-6.5-5-10.1-7.5c-23.9-17.4-55.9-37.2-93.8-51.9   c-1.8-0.7-3.7-1.4-5.6-2.1c-1.8-0.7-3.5-1.3-5.3-1.9c-9.6-3.4-19.6-6.5-29.9-9.1c-28.6-7.2-56.8-10.2-82.8-10.7   c-1.1,0-2.3,0-3.4-0.1C225.7,548.2,224.5,548.2,223.4,548.2L223.4,548.2z"/>

  <!-- <path d="M317.1,627.7c0.9,0,1.9,0,2.8,0l0,0l0,0c1.8,0,3.7,0,5.5,0.1l0.1,0h0c1.8,0,3.7,0.1,5.8,0.2   c34,1.4,69.1,7.6,104.3,18.4c3.7,1.1,7.6,2.4,11.8,3.8l0.5,0.2c6,2.1,11.9,4.2,17.5,6.4l0.8,0.3c3.8,1.5,7.6,3,11.2,4.6   c2.6,1.1,4.9,2.1,7.1,3.1c0.3,0.1,0.6,0.3,0.9,0.4c-1.6,1.1-3.5,2.3-5.7,3.8c-26.3,17.1-96.6,57.5-181.9,64.7   c-9.1,0.8-18.5,1.2-27.8,1.2c-50.3,0-95.5-11.2-124.5-20.5c-20.2-6.5-35.5-13.1-44.1-17c14.5-9.9,51.4-32.9,100.4-49.7l1.3-0.4   c0.4-0.1,0.8-0.3,1.2-0.4h0l0.8-0.3c1-0.4,2.1-0.7,3.2-1.1c27.2-8.8,54.3-14.4,80.7-16.6C298.3,628.1,307.6,627.7,317.1,627.7   C317,627.7,317,627.7,317.1,627.7 M317,622.7c-9.3,0-18.7,0.4-28.2,1.2c-29.4,2.5-57.1,8.8-81.8,16.8c-1.1,0.3-2.2,0.7-3.3,1.1h0   c-1.1,0.4-2.2,0.7-3.3,1.1c-65.3,22.3-108.7,55.3-108.7,55.3s79.6,41.7,178.4,41.7c9.3,0,18.7-0.4,28.2-1.2   c85.9-7.2,156.4-47.4,184.2-65.5c2.4-1.5,4.4-2.9,6.1-4.1c0.2-0.1,0.3-0.2,0.5-0.3c0.5-0.3,0.9-0.6,1.4-0.9   c0.2-0.2,0.5-0.3,0.7-0.5c0.3-0.2,0.6-0.4,0.9-0.6c0.3-0.2,0.6-0.4,0.9-0.6c0.1-0.1,0.2-0.2,0.4-0.2c0.4-0.3,0.8-0.6,1.1-0.8   c0,0,0,0,0,0c0.1-0.1,0.1-0.1,0.2-0.2c0,0,0.1,0,0.1,0c0,0,0,0,0,0c0,0,0,0,0,0c0.3-0.3,0.6-0.4,0.6-0.5c0,0,0,0,0,0s0,0,0,0   c0,0,0,0,0,0c0,0,0,0,0,0c-0.5-0.3-3.4-1.8-8.6-4.1c-2.1-0.9-4.5-2-7.2-3.2c-3.5-1.5-7.6-3.2-12.1-5h0c-5.4-2.1-11.5-4.3-18.2-6.6   h0c-3.8-1.3-7.8-2.6-12-3.9c-28.3-8.7-65-17-105.6-18.6c-2-0.1-4-0.2-5.9-0.2h0c-1.9,0-3.8-0.1-5.6-0.1   C319,622.7,318,622.7,317,622.7L317,622.7z"/> -->
</g><text x="0" y="1015" fill="#000000" font-size="5px" font-weight="bold" font-family="'Helvetica Neue', Helvetica, Arial-Unicode, Arial, Sans-serif">Created by sai aditya</text><text x="0" y="1020" fill="#000000" font-size="5px" font-weight="bold" font-family="'Helvetica Neue', Helvetica, Arial-Unicode, Arial, Sans-serif">from the Noun Project</text></svg>
