<svg xmlns="http://www.w3.org/2000/svg" xmlns:xlink="http://www.w3.org/1999/xlink" version="1.1" x="0px" y="0px" viewBox="0 0 81.2 257.375" enable-background="new 0 0 81.2 205.9" xml:space="preserve"><path d="M40.6,7.9c5,9.2,16.5,31.2,25.1,55.1c11.8,32.9,13.8,57.3,5.7,70.5c-16,26.2-26.1,50.5-30.8,63c-4.7-12.5-14.8-36.8-30.8-63  c-8.1-13.3-6.1-37.6,5.7-70.5C24.1,39.2,35.6,17.2,40.6,7.9 M40.6,3.2c-0.5,0-0.9,0.2-1.1,0.6c-7.8,14-52.8,97.6-32.2,131.4  C25.4,165,36,192.5,39.4,202c0.2,0.5,0.7,0.8,1.2,0.8s1-0.3,1.2-0.8c3.4-9.5,14-37,32.1-66.8C94.5,101.3,49.6,17.8,41.7,3.8  C41.5,3.4,41.1,3.2,40.6,3.2L40.6,3.2z"/><g><path d="M40.6,187.6c-0.7,0-1.2-0.6-1.2-1.2V103c0-0.7,0.6-1.2,1.2-1.2s1.2,0.6,1.2,1.2v83.4C41.9,187.1,41.3,187.6,40.6,187.6z"/></g><text x="0" y="220.9" fill="#000000" font-size="5px" font-weight="bold" font-family="'Helvetica Neue', Helvetica, Arial-Unicode, Arial, Sans-serif">Created by Chiara Rossi</text><text x="0" y="225.9" fill="#000000" font-size="5px" font-weight="bold" font-family="'Helvetica Neue', Helvetica, Arial-Unicode, Arial, Sans-serif">from the Noun Project</text></svg>