<svg xmlns="http://www.w3.org/2000/svg" xmlns:xlink="http://www.w3.org/1999/xlink" version="1.1" x="0px" y="0px" viewBox="0 0 360 160">
  <path id="bottom" d="M120 150 A 90 80 0 0 0 20 120 A 18 6 10 1 1 120 150"           fill="yellow" stroke="red" stroke-width="0"></path>

    <path id="bottom" d="M120 150 A 90 80 0 0 0 20 120 A 18 6 10 1 1 120 150"           fill="yellow" stroke="red" stroke-width="0" transform="rotate(4 150,180)"></path>


  <path id="bottom" d="M120 150 A 90 80 0 0 0 20 120 A 18 6 10 1 1 120 150"           fill="red" stroke="red" stroke-width="0"
             transform="translate(260,0) scale(-1,1)"
             ></path>

    <path id="bottom" d="M120 150 A 90 80 0 0 0 20 120 A 18 6 10 1 1 120 150"           fill="red" stroke="red" stroke-width="0"
               transform="rotate(3 150,180) translate(260,0) scale(-1,1)"
      ></path>

    <path id="bottom" d="M120 150 A 90 80 0 0 0 20 120 A 18 6 10 1 1 120 150"           fill="red" stroke="red" stroke-width="0"
               transform="rotate(6 150,180) translate(260,0) scale(-1,1)"
      ></path>
    <path id="bottom" d="M120 150 A 90 80 0 0 0 20 120 A 18 6 10 1 1 120 150"           fill="red" stroke="red" stroke-width="0"
               transform="rotate(9 150,180) translate(260,0) scale(-1,1)"
      ></path>
  <path id="bottom" d="M120 150 A 90 80 0 0 0 20 120 A 18 6 10 1 1 120 150"           fill="red" stroke="red" stroke-width="0"
             transform="rotate(12 150,180) translate(260,0) scale(-1,1)"
             ></path>
    <path id="bottom" d="M120 150 A 90 80 0 0 0 20 120 A 18 6 10 1 1 120 150"           fill="red" stroke="red" stroke-width="0"
               transform="rotate(15 150,180) translate(260,0) scale(-1,1)"
      ></path>
        <path id="bottom" d="M120 150 A 90 80 0 0 0 20 120 A 18 6 10 1 1 120 150"           fill="red" stroke="red" stroke-width="0"
             transform="rotate(18 150,180) translate(260,0) scale(-1,1)"
             ></path>


</svg>
